<?xml version="1.0" encoding="UTF-8" standalone="no"?>
<!-- Created with Inkscape (http://www.inkscape.org/) -->

<svg
   xmlns:dc="http://purl.org/dc/elements/1.1/"
   xmlns:cc="http://creativecommons.org/ns#"
   xmlns:rdf="http://www.w3.org/1999/02/22-rdf-syntax-ns#"
   xmlns:svg="http://www.w3.org/2000/svg"
   xmlns="http://www.w3.org/2000/svg"
   xmlns:sodipodi="http://sodipodi.sourceforge.net/DTD/sodipodi-0.dtd"
   xmlns:inkscape="http://www.inkscape.org/namespaces/inkscape"
   width="192"
   height="192"
   viewBox="0 0 192 192"
   id="svg2"
   version="1.1"
   inkscape:version="0.91 r13725"
   sodipodi:docname="ic_launcher.svg">
  <defs
     id="defs4">
    <filter
       inkscape:collect="always"
       style="color-interpolation-filters:sRGB"
       id="filter4228"
       x="-0.056999986"
       width="1.114"
       y="-0.041454553"
       height="1.0829091">
      <feGaussianBlur
         inkscape:collect="always"
         stdDeviation="3.039999"
         id="feGaussianBlur4230" />
    </filter>
    <filter
       inkscape:collect="always"
       style="color-interpolation-filters:sRGB"
       id="filter4229"
       x="-0.056999978"
       width="1.114"
       y="-0.041454557"
       height="1.0829091">
      <feGaussianBlur
         inkscape:collect="always"
         stdDeviation="2.7636356"
         id="feGaussianBlur4231" />
    </filter>
  </defs>
  <sodipodi:namedview
     id="base"
     pagecolor="#ffffff"
     bordercolor="#666666"
     borderopacity="1.0"
     inkscape:pageopacity="0.0"
     inkscape:pageshadow="2"
     inkscape:zoom="2.8284271"
     inkscape:cx="5.0119796"
     inkscape:cy="97.102629"
     inkscape:document-units="px"
     inkscape:current-layer="layer1"
     showgrid="false"
     units="px"
     showguides="true"
     inkscape:window-width="1920"
     inkscape:window-height="1027"
     inkscape:window-x="0"
     inkscape:window-y="28"
     inkscape:window-maximized="1" />
  <metadata
     id="metadata7">
    <rdf:RDF>
      <cc:Work
         rdf:about="">
        <dc:format>image/svg+xml</dc:format>
        <dc:type
           rdf:resource="http://purl.org/dc/dcmitype/StillImage" />
        <dc:title />
      </cc:Work>
    </rdf:RDF>
  </metadata>
  <g
     inkscape:label="Ebene 1"
     inkscape:groupmode="layer"
     id="layer1"
     transform="translate(0,-860.36213)">
    <rect
       style="fill:#313031;fill-opacity:1;stroke:none;stroke-opacity:1"
       id="rect4151-8-9"
       width="176"
       height="176"
       x="178.76628"
       y="1087.2117"
       rx="16.5"
       ry="16.5" />
    <rect
       style="fill:#000000;fill-opacity:1;stroke:none;stroke-opacity:1"
       id="rect4151-8"
       width="176"
       height="176"
       x="-214.41278"
       y="1081.168"
       rx="16.5"
       ry="16.5" />
    <path
       inkscape:connector-curvature="0"
       d="m -126.41278,1105.168 0,-24 -32,32 32,32 0,-24 c 26.519992,0 47.999992,21.48 47.999992,48 0,8.12 -2.04,15.72 -5.56,22.44 l 11.68,11.68 c 6.2,-9.92 9.88,-21.56 9.88,-34.12 0,-35.36 -28.64,-64 -63.999992,-64 z m 0,112 c -26.52,0 -48,-21.48 -48,-48 0,-8.12 2.04,-15.72 5.56,-22.44 l -11.68,-11.68 c -6.2,9.92 -9.88,21.56 -9.88,34.12 0,35.36 28.64,64 64,64 l 0,24 31.999992,-32 -31.999992,-32 0,24 z"
       id="path4-3"
       style="fill:#ffffff;fill-opacity:1" />
    <path
       style="fill:#ffffff;fill-opacity:0.2;stroke:none;stroke-opacity:1"
       d="m 195.26629,1087.2117 c -9.141,0 -16.5,7.359 -16.5,16.5 l 0,4 c 0,-9.141 7.359,-16.5 16.5,-16.5 l 67.5,0 4,-4 -71.5,0 z m 71.5,0 0,4 71.5,0 c 9.141,0 16.5,7.359 16.5,16.5 l 0,-4 c 0,-9.141 -7.359,-16.5 -16.5,-16.5 l -71.5,0 z"
       id="rect4151-6"
       inkscape:connector-curvature="0" />
    <path
       style="fill:#000000;fill-opacity:0.2;stroke:none;stroke-opacity:1"
       d="m 178.76629,1242.7117 0,4 c 0,9.141 7.359,16.5 16.5,16.5 l 71.5,0 0,-4 -71.5,0 c -9.141,0 -16.5,-7.359 -16.5,-16.5 z m 88,20.5 71.5,0 c 9.141,0 16.5,-7.359 16.5,-16.5 l 0,-4 c 0,9.141 -7.359,16.5 -16.5,16.5 l -67.5,0 -4,4 z"
       id="rect4151-85"
       inkscape:connector-curvature="0" />
    <g
       id="g4182"
       transform="translate(0,29.344932)">
      <path
         inkscape:connector-curvature="0"
         id="rect4151-83"
         d="m -3.971,1056.4071 c -9.141,0 -16.5,7.359 -16.5,16.5 l 0,143 c 0,9.141 7.359,16.5 16.5,16.5 l 71.5,0 0,-24 c -35.36,0 -64,-28.6399 -64,-64 0,-12.56 3.680859,-24.1991 9.880859,-34.1191 l 11.679688,11.6797 c -3.52,6.72 -5.560547,14.3194 -5.560547,22.4394 0,26.5201 21.48,48 48,48 l 0,-23.9999 32.000012,31.9999 -32.000012,32 71.50001,0 c 9.141,0 16.5,-7.359 16.5,-16.5 l 0,-143 c 0,-9.141 -7.359,-16.5 -16.5,-16.5 l -71.50001,0 0,24 c 35.36,0 64.00001,28.64 64.00001,64 0,12.56 -3.68086,24.1992 -9.88086,34.1192 l -11.67969,-11.6797 c 3.52,-6.72 5.56055,-14.3195 5.56055,-22.4395 0,-26.52 -21.480008,-48 -48.00001,-48 l 0,24 -32,-32 32,-32 -71.5,0 z"
         style="fill:#313031;fill-opacity:1;stroke:none;stroke-opacity:1" />
      <path
         id="rect4151-6-2"
         d="m -3.9713009,1056.4074 c -9.1410001,0 -16.5000001,7.359 -16.5000001,16.5 l 0,4 c 0,-9.141 7.359,-16.5 16.5000001,-16.5 l 67.4999999,0 4,-4 -71.4999999,0 z m 71.4999999,0 0,4 71.500001,0 c 9.141,0 16.5,7.359 16.5,16.5 l 0,-4 c 0,-9.141 -7.359,-16.5 -16.5,-16.5 l -71.500001,0 z"
         style="fill:#ffffff;fill-opacity:0.2;stroke:none;stroke-opacity:1"
         inkscape:connector-curvature="0" />
      <path
         id="rect4151-85-4"
         d="m -20.471301,1211.9073 0,4 c 0,9.141 7.359,16.5 16.5000001,16.5 l 71.4999999,0 0,-4 -71.4999999,0 c -9.1410001,0 -16.5000001,-7.359 -16.5000001,-16.5 z m 88,20.5 71.500001,0 c 9.141,0 16.5,-7.359 16.5,-16.5 l 0,-4 c 0,9.141 -7.359,16.5 -16.5,16.5 l -67.499999,0 -4.000002,4 z"
         style="fill:#000000;fill-opacity:0.2;stroke:none;stroke-opacity:1"
         inkscape:connector-curvature="0" />
    </g>
    <path
       inkscape:connector-curvature="0"
       d="m 266.76629,1115.2117 0,-24 -32,32 32,32 0,-24 c 26.51999,0 47.99999,21.48 47.99999,48 0,8.12 -2.04,15.72 -5.56,22.44 l 11.68,11.68 c 6.2,-9.92 9.88,-21.56 9.88,-34.12 0,-35.36 -28.64,-64 -63.99999,-64 z m 0,111.9999 c -26.52,0 -48,-21.4799 -48,-47.9999 0,-8.12 2.04,-15.72 5.56,-22.44 l -11.68,-11.68 c -6.2,9.92 -9.88,21.56 -9.88,34.12 0,35.36 28.64,63.9999 64,63.9999 l 0,24 31.99999,-32 -31.99999,-31.9999 0,23.9999 z"
       id="path4-3-9"
       style="fill:#000000;fill-opacity:0.2;filter:url(#filter4228)" />
    <path
       inkscape:connector-curvature="0"
       d="m 266.76629,1111.2117 0,-24 -32,32 32,32 0,-24 c 26.52,0 48,21.48 48,48 0,8.12 -2.04,15.72 -5.56001,22.44 l 11.68001,11.68 c 6.19999,-9.92 9.88,-21.56 9.88,-34.12 0,-35.36 -28.64,-64 -64,-64 z m 0,112 c -26.51999,0 -48,-21.48 -48,-48 0,-8.12 2.04,-15.72 5.56001,-22.44 l -11.68001,-11.68 c -6.19999,9.92 -9.88,21.56 -9.88,34.12 0,35.36 28.64,63.9999 64,63.9999 l 0,24 32,-32 -32,-31.9999 0,24 z"
       id="path4-3-2"
       style="fill:#ffffff;fill-opacity:1" />
    <path
       style="fill:#000000;fill-opacity:0.2"
       d="m 236.76629,1117.2117 -2,2 32,32 0,-4 -30,-30 z m 30,6 0,4 c 25.78034,0 46.79103,20.3003 47.94336,45.7949 0.0223,-0.5974 0.0566,-1.1915 0.0566,-1.7949 0,-26.52 -21.48,-48 -48,-48 z m -43.74609,28.2539 c -2.71177,6.033 -4.25391,12.6924 -4.25391,19.7461 0,0.7397 0.0236,1.4736 0.0566,2.2051 0.27778,-7.4433 2.24545,-14.4239 5.50391,-20.6445 l -1.30664,-1.3067 z m -20.21094,21.4199 c -0.028,0.7719 -0.043,1.5471 -0.043,2.3262 0,35.3601 28.64,63.9999 64,63.9999 l 0,-4 c -34.79865,0 -63.06758,-27.7428 -63.95703,-62.3261 z m 127.91406,0.67 c -0.427,11.6642 -4.0254,22.4754 -9.83789,31.7754 l -10.37305,-10.3731 c -0.4099,0.9119 -0.84442,1.811 -1.30664,2.6934 l 11.67969,11.6797 c 6.19999,-9.9201 9.88086,-21.5592 9.88086,-34.1192 0,-0.5554 -0.0289,-1.1042 -0.043,-1.6562 z m -33.95703,55.6561 -30,30 0,4 32,-32 -2,-2 z"
       id="path4-3-2-3"
       inkscape:connector-curvature="0" />
    <ellipse
       style="fill:#424242;fill-opacity:1;stroke:#000000;stroke-width:0;stroke-miterlimit:4;stroke-dasharray:none;stroke-opacity:0"
       id="path4137"
       cx="95.999573"
       cy="956.362"
       rx="87.999565"
       ry="87.99987" />
    <path
       inkscape:connector-curvature="0"
       d="m 95.99983,902.18038 0,-21.81819 -29.09091,29.09092 29.09091,29.09091 0,-21.81818 c 24.10909,0 43.63636,19.52727 43.63636,43.63637 0,7.38182 -1.85453,14.29092 -5.05454,20.40001 l 10.61819,10.61818 c 5.63636,-9.01818 8.98181,-19.6 8.98181,-31.01819 0,-32.14546 -26.03636,-58.18183 -58.18182,-58.18183 z m 0,101.81822 c -24.10909,0 -43.63637,-19.52729 -43.63637,-43.63639 0,-7.38182 1.85455,-14.29091 5.05455,-20.4 L 46.79982,929.34402 c -5.63636,9.01819 -8.98182,19.60001 -8.98182,31.01819 0,32.14547 26.03637,58.18169 58.18183,58.18169 l 0,21.8182 29.09092,-29.0909 -29.09092,-29.0908 0,21.8182 z"
       id="path4-3-3-3"
       style="fill:#000000;fill-opacity:0.2;filter:url(#filter4229)" />
    <path
       style="fill:#ffffff;fill-opacity:0.19607843;stroke:#000000;stroke-width:0;stroke-miterlimit:4;stroke-dasharray:none;stroke-opacity:0"
       d="m 95.999637,868.3622 a 87.999571,87.997906 0 0 0 -87.9996306,87.99795 87.999571,87.997906 0 0 0 0.0236,0.586 87.999571,87.997906 0 0 1 87.9761906,-87.58395 87.999571,87.997906 0 0 1 87.976183,87.41195 87.999571,87.997906 0 0 0 0.024,-0.414 87.999571,87.997906 0 0 0 -87.999623,-87.99795 z"
       id="path4137-0"
       inkscape:connector-curvature="0" />
    <path
       inkscape:connector-curvature="0"
       style="fill:#000000;fill-opacity:0.19607843;stroke:#000000;stroke-width:0;stroke-miterlimit:4;stroke-dasharray:none;stroke-opacity:0"
       d="m 95.999637,1044.3621 a 87.999571,87.99987 0 0 1 -87.9996306,-87.99995 87.999571,87.99987 0 0 1 0.0236,-0.586 87.999571,87.99987 0 0 0 87.9760306,87.58595 87.999571,87.99987 0 0 0 87.976183,-87.41395 87.999571,87.99987 0 0 1 0.024,0.414 87.999571,87.99987 0 0 1 -87.999623,87.99995 z"
       id="path4137-0-3" />
    <path
       inkscape:connector-curvature="0"
       d="m 95.99983,898.18032 0,-21.81819 -29.09091,29.09092 29.09091,29.09091 0,-21.81818 c 24.10909,0 43.63636,19.52727 43.63636,43.63637 0,7.38182 -1.85453,14.29092 -5.05454,20.40001 l 10.61819,10.61818 c 5.63636,-9.01818 8.98181,-19.6 8.98181,-31.01819 0,-32.14546 -26.03636,-58.18183 -58.18182,-58.18183 z m 0,101.81821 c -24.10909,0 -43.63637,-19.52728 -43.63637,-43.63638 0,-7.38182 1.85455,-14.29091 5.05455,-20.4 L 46.79982,925.34396 c -5.63636,9.01819 -8.98182,19.60001 -8.98182,31.01819 0,32.14547 26.03637,58.18175 58.18183,58.18175 l 0,21.8182 29.09092,-29.0909 -29.09092,-29.09086 0,21.81819 z"
       id="path4-3-3"
       style="fill:#ffffff;fill-opacity:1" />
    <path
       style="fill:#000000;fill-opacity:0.2"
       d="m 67.409797,904.95396 -0.5,0.5 29.089844,29.08984 0,-1 -28.589844,-28.58984 z m 28.589844,6.77148 0,1 c 23.923029,0 43.324859,19.23005 43.623049,43.08203 0.002,-0.14924 0.0137,-0.29568 0.0137,-0.44531 0,-24.1091 -19.52763,-43.63672 -43.636719,-43.63672 z m -38.910157,23.9082 c -2.990278,5.94388 -4.726562,12.61309 -4.726562,19.72852 0,0.18606 0.01135,0.36918 0.01367,0.55469 0.07345,-7.21329 1.905879,-13.96982 5.041015,-19.95508 l -0.328125,-0.32813 z m -19.261718,20.14844 c -0.0019,0.19378 -0.0098,0.38581 -0.0098,0.58008 0,32.14547 26.036181,58.18164 58.181641,58.18164 l 0,-1 c -32.004675,0 -57.945194,-25.81077 -58.171875,-57.76172 z m 116.343754,0.16211 c -0.11197,11.195 -3.43057,21.5713 -8.97071,30.43554 L 134.9098,976.09068 c -0.11192,0.22245 -0.21269,0.45148 -0.32813,0.67187 l 10.61914,10.61718 c 5.63636,-9.01817 8.98047,-19.59938 8.98047,-31.01757 0,-0.14022 -0.009,-0.27798 -0.01,-0.41797 z m -29.58008,50.82611 -28.591799,28.5918 0,1 29.091799,-29.0918 -0.5,-0.5 z"
       id="path4-3-3-7"
       inkscape:connector-curvature="0" />
  </g>
</svg>
