<?xml version="1.0" encoding="UTF-8" standalone="no"?>
<!-- Created with Inkscape (http://www.inkscape.org/) -->

<svg
   xmlns:dc="http://purl.org/dc/elements/1.1/"
   xmlns:cc="http://creativecommons.org/ns#"
   xmlns:rdf="http://www.w3.org/1999/02/22-rdf-syntax-ns#"
   xmlns:svg="http://www.w3.org/2000/svg"
   xmlns="http://www.w3.org/2000/svg"
   xmlns:sodipodi="http://sodipodi.sourceforge.net/DTD/sodipodi-0.dtd"
   xmlns:inkscape="http://www.inkscape.org/namespaces/inkscape"
   width="192"
   height="192"
   viewBox="0 0 192 192"
   id="svg2"
   version="1.1"
   inkscape:version="0.91 r13725"
   sodipodi:docname="ic_launcher.svg">
  <defs
     id="defs4">
    <filter
       inkscape:collect="always"
       style="color-interpolation-filters:sRGB"
       id="filter4228"
       x="-0.056999986"
       width="1.114"
       y="-0.041454553"
       height="1.0829091">
      <feGaussianBlur
         inkscape:collect="always"
         stdDeviation="3.039999"
         id="feGaussianBlur4230" />
    </filter>
  </defs>
  <sodipodi:namedview
     id="base"
     pagecolor="#ffffff"
     bordercolor="#666666"
     borderopacity="1.0"
     inkscape:pageopacity="0.0"
     inkscape:pageshadow="2"
     inkscape:zoom="2.8284271"
     inkscape:cx="52.472644"
     inkscape:cy="38.957785"
     inkscape:document-units="px"
     inkscape:current-layer="layer1"
     showgrid="false"
     units="px"
     showguides="true"
     inkscape:window-width="1920"
     inkscape:window-height="1031"
     inkscape:window-x="0"
     inkscape:window-y="25"
     inkscape:window-maximized="1" />
  <metadata
     id="metadata7">
    <rdf:RDF>
      <cc:Work
         rdf:about="">
        <dc:format>image/svg+xml</dc:format>
        <dc:type
           rdf:resource="http://purl.org/dc/dcmitype/StillImage" />
        <dc:title />
      </cc:Work>
    </rdf:RDF>
  </metadata>
  <g
     inkscape:label="Ebene 1"
     inkscape:groupmode="layer"
     id="layer1"
     transform="translate(0,-860.36213)">
    <rect
       style="fill:#313031;fill-opacity:1;stroke:none;stroke-opacity:1"
       id="rect4151-8-9"
       width="176"
       height="176"
       x="8"
       y="868.36212"
       rx="16.5"
       ry="16.5" />
    <rect
       style="fill:#000000;fill-opacity:1;stroke:none;stroke-opacity:1"
       id="rect4151-8"
       width="176"
       height="176"
       x="-212.29146"
       y="871.5108"
       rx="16.5"
       ry="16.5" />
    <path
       inkscape:connector-curvature="0"
       d="m -124.29146,895.51086 0,-24 -32,32 32,32 0,-24 c 26.519992,0 47.999992,21.48 47.999992,48 0,8.12 -2.04,15.72 -5.56,22.44 l 11.68,11.68 c 6.2,-9.92 9.88,-21.56 9.88,-34.12 0,-35.36 -28.64,-64 -63.999992,-64 z m 0,111.99994 c -26.52,0 -48,-21.47994 -48,-47.99994 0,-8.12 2.04,-15.72 5.56,-22.44 l -11.68,-11.68 c -6.2,9.92 -9.88,21.56 -9.88,34.12 0,35.36 28.64,63.99994 64,63.99994 l 0,24 31.999992,-32 -31.999992,-31.99994 0,23.99994 z"
       id="path4-3"
       style="fill:#ffffff;fill-opacity:1" />
    <path
       style="fill:#ffffff;fill-opacity:0.2;stroke:none;stroke-opacity:1"
       d="M 24.5 8 C 15.359 8 8 15.359 8 24.5 L 8 28.5 C 8 19.359 15.359 12 24.5 12 L 92 12 L 96 8 L 24.5 8 z M 96 8 L 96 12 L 167.5 12 C 176.641 12 184 19.359 184 28.5 L 184 24.5 C 184 15.359 176.641 8 167.5 8 L 96 8 z "
       transform="translate(0,860.36213)"
       id="rect4151-6" />
    <path
       style="fill:#000000;fill-opacity:0.2;stroke:none;stroke-opacity:1"
       d="M 8 163.5 L 8 167.5 C 8 176.641 15.359 184 24.5 184 L 96 184 L 96 180 L 24.5 180 C 15.359 180 8 172.641 8 163.5 z M 96 184 L 167.5 184 C 176.641 184 184 176.641 184 167.5 L 184 163.5 C 184 172.641 176.641 180 167.5 180 L 100 180 L 96 184 z "
       id="rect4151-85"
       transform="translate(0,860.36213)" />
    <g
       id="g4182"
       transform="translate(0,29.344932)">
      <path
         inkscape:connector-curvature="0"
         id="rect4151-83"
         d="m -3.971,1056.4071 c -9.141,0 -16.5,7.359 -16.5,16.5 l 0,143 c 0,9.141 7.359,16.5 16.5,16.5 l 71.5,0 0,-24 c -35.36,0 -64,-28.6399 -64,-64 0,-12.56 3.680859,-24.1991 9.880859,-34.1191 l 11.679688,11.6797 c -3.52,6.72 -5.560547,14.3194 -5.560547,22.4394 0,26.5201 21.48,48 48,48 l 0,-23.9999 32.000012,31.9999 -32.000012,32 71.50001,0 c 9.141,0 16.5,-7.359 16.5,-16.5 l 0,-143 c 0,-9.141 -7.359,-16.5 -16.5,-16.5 l -71.50001,0 0,24 c 35.36,0 64.00001,28.64 64.00001,64 0,12.56 -3.68086,24.1992 -9.88086,34.1192 l -11.67969,-11.6797 c 3.52,-6.72 5.56055,-14.3195 5.56055,-22.4395 0,-26.52 -21.480008,-48 -48.00001,-48 l 0,24 -32,-32 32,-32 -71.5,0 z"
         style="fill:#313031;fill-opacity:1;stroke:none;stroke-opacity:1" />
      <path
         id="rect4151-6-2"
         d="m -3.9713009,1056.4074 c -9.1410001,0 -16.5000001,7.359 -16.5000001,16.5 l 0,4 c 0,-9.141 7.359,-16.5 16.5000001,-16.5 l 67.4999999,0 4,-4 -71.4999999,0 z m 71.4999999,0 0,4 71.500001,0 c 9.141,0 16.5,7.359 16.5,16.5 l 0,-4 c 0,-9.141 -7.359,-16.5 -16.5,-16.5 l -71.500001,0 z"
         style="fill:#ffffff;fill-opacity:0.2;stroke:none;stroke-opacity:1"
         inkscape:connector-curvature="0" />
      <path
         id="rect4151-85-4"
         d="m -20.471301,1211.9073 0,4 c 0,9.141 7.359,16.5 16.5000001,16.5 l 71.4999999,0 0,-4 -71.4999999,0 c -9.1410001,0 -16.5000001,-7.359 -16.5000001,-16.5 z m 88,20.5 71.500001,0 c 9.141,0 16.5,-7.359 16.5,-16.5 l 0,-4 c 0,9.141 -7.359,16.5 -16.5,16.5 l -67.499999,0 -4.000002,4 z"
         style="fill:#000000;fill-opacity:0.2;stroke:none;stroke-opacity:1"
         inkscape:connector-curvature="0" />
    </g>
    <path
       inkscape:connector-curvature="0"
       d="m 96,896.36219 0,-24 -32,32 32,32 0,-24 c 26.51999,0 47.99999,21.48 47.99999,48 0,8.12 -2.04,15.72 -5.56,22.44 l 11.68,11.67997 c 6.2,-9.91997 9.88,-21.55997 9.88,-34.11997 0,-35.36 -28.64,-64 -63.99999,-64 z m 0,111.99991 c -26.52,0 -48,-21.47991 -48,-47.99991 0,-8.12 2.04,-15.72 5.56,-22.44 l -11.68,-11.68 c -6.2,9.92 -9.88,21.56 -9.88,34.12 0,35.35997 28.64,63.99991 64,63.99991 l 0,24 31.99999,-32 L 96,984.36219 l 0,23.99991 z"
       id="path4-3-9"
       style="fill:#000000;fill-opacity:0.2;filter:url(#filter4228)" />
    <path
       inkscape:connector-curvature="0"
       d="m 96,892.36213 0,-23.99995 -32,31.99995 32,32 0,-24 c 26.52,0 48,21.48 48,48 0,8.12 -2.04,15.72 -5.56001,22.44 l 11.68001,11.68 c 6.19999,-9.92 9.88,-21.56 9.88,-34.12 0,-35.36 -28.64,-64 -64,-64 z m 0,111.99997 c -26.51999,0 -48,-21.47997 -48,-47.99997 0,-8.12 2.04,-15.72 5.56001,-22.44 L 41.88,922.24213 c -6.19999,9.92 -9.88,21.56 -9.88,34.12 0,35.36 28.64,63.99997 64,63.99997 l 0,24 32,-32 -32,-31.99997 0,23.99997 z"
       id="path4-3-2"
       style="fill:#ffffff;fill-opacity:1" />
    <path
       style="fill:#000000;fill-opacity:0.2"
       d="m 66,898.36216 -2,2 32,32 0,-4 -30,-30 z m 30,6 0,4 c 25.78034,0 46.79103,20.30031 47.94336,45.79492 0.0223,-0.59747 0.0566,-1.19156 0.0566,-1.79492 0,-26.52 -21.48,-48 -48,-48 z M 52.25391,932.61607 C 49.54214,938.64903 48,945.3084 48,952.36216 c 0,0.73966 0.02358,1.47362 0.05664,2.20508 0.27778,-7.44326 2.24545,-14.42387 5.50391,-20.64453 l -1.30664,-1.30664 z M 32.04297,954.03599 C 32.01493,954.80783 32,955.58305 32,956.36216 c 0,35.36004 28.64,63.99994 64,63.99994 l 0,-4 c -34.79865,0 -63.06758,-27.74287 -63.95703,-62.32611 z m 127.91406,0.66992 c -0.427,11.66426 -4.0254,22.47539 -9.83789,31.77539 l -10.37305,-10.37305 c -0.4099,0.91194 -0.84442,1.81096 -1.30664,2.69336 l 11.67969,11.67969 C 156.31913,980.56126 160,968.92216 160,956.36216 c 0,-0.55545 -0.0289,-1.1042 -0.043,-1.65625 z M 126,1010.3621 l -30,30 0,4 32,-32 -2,-2 z"
       id="path4-3-2-3"
       inkscape:connector-curvature="0" />
  </g>
</svg>
