<?xml version="1.0" encoding="UTF-8" standalone="no"?>
<!-- Created with Inkscape (http://www.inkscape.org/) -->

<svg
   xmlns:dc="http://purl.org/dc/elements/1.1/"
   xmlns:cc="http://creativecommons.org/ns#"
   xmlns:rdf="http://www.w3.org/1999/02/22-rdf-syntax-ns#"
   xmlns:svg="http://www.w3.org/2000/svg"
   xmlns="http://www.w3.org/2000/svg"
   xmlns:sodipodi="http://sodipodi.sourceforge.net/DTD/sodipodi-0.dtd"
   xmlns:inkscape="http://www.inkscape.org/namespaces/inkscape"
   width="192"
   height="192"
   viewBox="0 0 192 192"
   id="svg2"
   version="1.1"
   inkscape:version="0.91 r13725"
   sodipodi:docname="ic_launcher.svg">
  <defs
     id="defs4">
    <filter
       inkscape:collect="always"
       style="color-interpolation-filters:sRGB"
       id="filter4471"
       x="-0.04799999"
       width="1.096"
       y="-0.04800001"
       height="1.096">
      <feGaussianBlur
         inkscape:collect="always"
         stdDeviation="3.5199995"
         id="feGaussianBlur4473" />
    </filter>
  </defs>
  <sodipodi:namedview
     id="base"
     pagecolor="#ffffff"
     bordercolor="#666666"
     borderopacity="1.0"
     inkscape:pageopacity="0.0"
     inkscape:pageshadow="2"
     inkscape:zoom="2"
     inkscape:cx="-50.880102"
     inkscape:cy="-7.6621707"
     inkscape:document-units="px"
     inkscape:current-layer="layer1"
     showgrid="false"
     units="px"
     showguides="true"
     inkscape:window-width="1920"
     inkscape:window-height="1031"
     inkscape:window-x="0"
     inkscape:window-y="25"
     inkscape:window-maximized="1" />
  <metadata
     id="metadata7">
    <rdf:RDF>
      <cc:Work
         rdf:about="">
        <dc:format>image/svg+xml</dc:format>
        <dc:type
           rdf:resource="http://purl.org/dc/dcmitype/StillImage" />
        <dc:title />
      </cc:Work>
    </rdf:RDF>
  </metadata>
  <g
     inkscape:label="Ebene 1"
     inkscape:groupmode="layer"
     id="layer1"
     transform="translate(0,-860.36213)">
    <path
       style="fill:#000000;fill-opacity:0.2;stroke:none;stroke-opacity:1;filter:url(#filter4471)"
       d="M 24.5 12 C 15.359 12 8 19.359 8 28.5 L 8 167.5 C 8 176.641 15.359 184 24.5 184 L 96 184 L 96 164 C 60.64 164 32 135.36 32 100 C 32 87.44 35.680859 75.800859 41.880859 65.880859 L 53.560547 77.560547 C 50.040547 84.280547 48 91.88 48 100 C 48 126.52 69.48 148 96 148 L 96 124 L 128 156 L 100 184 L 167.5 184 C 176.641 184 184 176.641 184 167.5 L 184 28.5 C 184 19.359 176.641 12 167.5 12 L 96 12 L 96 36 C 131.36 36 160 64.64 160 100 C 160 112.56 156.31914 124.19914 150.11914 134.11914 L 138.43945 122.43945 C 141.95945 115.71945 144 108.12 144 100 C 144 73.48 122.52 52 96 52 L 96 76 L 64 44 L 96 12 L 24.5 12 z "
       transform="translate(0,860.36213)"
       id="rect4151-2" />
    <rect
       style="fill:#000000;fill-opacity:1;stroke:none;stroke-opacity:1"
       id="rect4151-8"
       width="176"
       height="176"
       x="-212.29146"
       y="871.5108"
       rx="16.5"
       ry="16.5" />
    <path
       inkscape:connector-curvature="0"
       d="m -124.29146,895.51086 0,-24 -32,32 32,32 0,-24 c 26.519992,0 47.999992,21.48 47.999992,48 0,8.12 -2.04,15.72 -5.56,22.44 l 11.68,11.68 c 6.2,-9.92 9.88,-21.56 9.88,-34.12 0,-35.36 -28.64,-64 -63.999992,-64 z m 0,111.99994 c -26.52,0 -48,-21.47994 -48,-47.99994 0,-8.12 2.04,-15.72 5.56,-22.44 l -11.68,-11.68 c -6.2,9.92 -9.88,21.56 -9.88,34.12 0,35.36 28.64,63.99994 64,63.99994 l 0,24 31.999992,-32 -31.999992,-31.99994 0,23.99994 z"
       id="path4-3"
       style="fill:#ffffff;fill-opacity:1" />
    <path
       style="fill:#313031;fill-opacity:1;stroke:none;stroke-opacity:1"
       d="m 24.5,868.36212 c -9.141,0 -16.5,7.359 -16.5,16.5 l 0,142.99998 c 0,9.141 7.359,16.5 16.5,16.5 l 71.5,0 0,-24 c -35.36,0 -64,-28.63997 -64,-63.99998 0,-12.56 3.680859,-24.19914 9.880859,-34.11914 l 11.679688,11.67969 C 50.040547,940.64267 48,948.24212 48,956.36212 c 0,26.52001 21.48,47.99998 48,47.99998 l 0,-23.99997 32.00001,31.99997 -32.00001,32 71.50001,0 c 9.141,0 16.5,-7.359 16.5,-16.5 l 0,-142.99998 c 0,-9.141 -7.359,-16.5 -16.5,-16.5 l -71.50001,0 0,24 c 35.36,0 64.00001,28.64 64.00001,64 0,12.56 -3.68086,24.19911 -9.88086,34.11911 l -11.67969,-11.6797 c 3.52,-6.71996 5.56055,-14.31941 5.56055,-22.43941 0,-26.52 -21.48001,-48 -48.00001,-48 l 0,24 -32,-32 32,-32 -71.5,0 z"
       id="rect4151"
       inkscape:connector-curvature="0" />
    <path
       style="fill:#ffffff;fill-opacity:0.2;stroke:none;stroke-opacity:1"
       d="M 24.5 8 C 15.359 8 8 15.359 8 24.5 L 8 28.5 C 8 19.359 15.359 12 24.5 12 L 92 12 L 96 8 L 24.5 8 z M 96 8 L 96 12 L 167.5 12 C 176.641 12 184 19.359 184 28.5 L 184 24.5 C 184 15.359 176.641 8 167.5 8 L 96 8 z "
       transform="translate(0,860.36213)"
       id="rect4151-6" />
    <path
       style="fill:#000000;fill-opacity:0.2;stroke:none;stroke-opacity:1"
       d="M 8 163.5 L 8 167.5 C 8 176.641 15.359 184 24.5 184 L 96 184 L 96 180 L 24.5 180 C 15.359 180 8 172.641 8 163.5 z M 96 184 L 167.5 184 C 176.641 184 184 176.641 184 167.5 L 184 163.5 C 184 172.641 176.641 180 167.5 180 L 100 180 L 96 184 z "
       id="rect4151-85"
       transform="translate(0,860.36213)" />
    <g
       id="g4182"
       transform="translate(0,29.344932)">
      <path
         inkscape:connector-curvature="0"
         id="rect4151-83"
         d="m -3.971,1056.4071 c -9.141,0 -16.5,7.359 -16.5,16.5 l 0,143 c 0,9.141 7.359,16.5 16.5,16.5 l 71.5,0 0,-24 c -35.36,0 -64,-28.6399 -64,-64 0,-12.56 3.680859,-24.1991 9.880859,-34.1191 l 11.679688,11.6797 c -3.52,6.72 -5.560547,14.3194 -5.560547,22.4394 0,26.5201 21.48,48 48,48 l 0,-23.9999 32.000012,31.9999 -32.000012,32 71.50001,0 c 9.141,0 16.5,-7.359 16.5,-16.5 l 0,-143 c 0,-9.141 -7.359,-16.5 -16.5,-16.5 l -71.50001,0 0,24 c 35.36,0 64.00001,28.64 64.00001,64 0,12.56 -3.68086,24.1992 -9.88086,34.1192 l -11.67969,-11.6797 c 3.52,-6.72 5.56055,-14.3195 5.56055,-22.4395 0,-26.52 -21.480008,-48 -48.00001,-48 l 0,24 -32,-32 32,-32 -71.5,0 z"
         style="fill:#313031;fill-opacity:1;stroke:none;stroke-opacity:1" />
      <path
         id="rect4151-6-2"
         d="m -3.9713009,1056.4074 c -9.1410001,0 -16.5000001,7.359 -16.5000001,16.5 l 0,4 c 0,-9.141 7.359,-16.5 16.5000001,-16.5 l 67.4999999,0 4,-4 -71.4999999,0 z m 71.4999999,0 0,4 71.500001,0 c 9.141,0 16.5,7.359 16.5,16.5 l 0,-4 c 0,-9.141 -7.359,-16.5 -16.5,-16.5 l -71.500001,0 z"
         style="fill:#ffffff;fill-opacity:0.2;stroke:none;stroke-opacity:1"
         inkscape:connector-curvature="0" />
      <path
         id="rect4151-85-4"
         d="m -20.471301,1211.9073 0,4 c 0,9.141 7.359,16.5 16.5000001,16.5 l 71.4999999,0 0,-4 -71.4999999,0 c -9.1410001,0 -16.5000001,-7.359 -16.5000001,-16.5 z m 88,20.5 71.500001,0 c 9.141,0 16.5,-7.359 16.5,-16.5 l 0,-4 c 0,9.141 -7.359,16.5 -16.5,16.5 l -67.499999,0 -4.000002,4 z"
         style="fill:#000000;fill-opacity:0.2;stroke:none;stroke-opacity:1"
         inkscape:connector-curvature="0" />
    </g>
  </g>
</svg>
